<svg xmlns="http://www.w3.org/2000/svg" version="1.1" xmlns:xlink="http://www.w3.org/1999/xlink" xmlns:svgjs="http://svgjs.dev/svgjs" width="1500" height="1500" viewBox="0 0 1500 1500"><rect width="1500" height="1500" fill="#000000"></rect><g transform="matrix(0.6666666666666666,0,0,0.6666666666666666,250.43808712640367,404.61322537112017)"><svg viewBox="0 0 357 247" data-background-color="#000000" preserveAspectRatio="xMidYMid meet" height="1037" width="1500" xmlns="http://www.w3.org/2000/svg" xmlns:xlink="http://www.w3.org/1999/xlink"><g id="tight-bounds" transform="matrix(1,0,0,1,-0.15639710412611407,-0.09999999999999432)"><svg viewBox="0 0 357.3127942082522 247.2" height="247.2" width="357.3127942082522"><g><svg viewBox="0 0 395.52 273.6329221478012" height="247.2" width="357.3127942082522"><g transform="matrix(1,0,0,1,0,169.11612349573718)"><svg viewBox="0 0 395.52 104.51679865206403" height="104.51679865206403" width="395.52"><g id="textblocktransform"><svg viewBox="0 0 395.52 104.51679865206403" height="104.51679865206403" width="395.52" id="textblock"><g><svg viewBox="0 0 395.52 104.51679865206403" height="104.51679865206403" width="395.52"><g transform="matrix(1,0,0,1,0,0)"><svg width="395.52" viewBox="4.52 -35.23 173.85999999999999 45.949999999999996" height="104.51679865206403" data-palette-color="url(#7383062e-c63d-46f8-8398-966ae7ad4397)"></svg></g></svg></g></svg></g></svg></g><g transform="matrix(1,0,0,1,125.53889213142375,0)"><svg viewBox="0 0 144.44221573715248 144.4422157371525" height="144.4422157371525" width="144.44221573715248"><g><svg></svg></g><g id="icon-0"><svg viewBox="0 0 144.44221573715248 144.4422157371525" height="144.4422157371525" width="144.44221573715248"><g></g><g transform="matrix(1,0,0,1,42.16508875577962,28.8884431474305)"><svg viewBox="0 0 60.11203822559323 86.66532944229151" height="86.66532944229151" width="60.11203822559323"><g><svg xmlns="http://www.w3.org/2000/svg" xml:space="preserve" viewBox="18.2774555030272 4.099999999999998 63.64508899394559 91.7590347601264" x="0" y="0" height="86.66532944229151" width="60.11203822559323" class="icon-dxe-0" data-fill-palette-color="quaternary" id="dxe-0"><path d="M55.9 24.4c0 0.6-0.4 1-1 1s-1-0.4-1-1 0.4-1 1-1c0.5 0 1 0.4 1 1m-10.7-1c-0.6 0-1 0.4-1 1s0.4 1 1 1 1-0.4 1-1-0.5-1-1-1M81.8 69c-0.6 5-4.3 11.2-6.1 10.8-0.6-0.1-0.7-2.6-1-5.8 0.1 0 0.2 0.1 0.4 0.1 0.7 0 0.7-0.6 0.7-0.6v-2.2h0.5c0.8-0.2 0.7-1 0.7-1s-0.5-0.3-0.7-0.7-0.3-0.7-0.4-1.1-0.2-1-0.3-1.3c-0.1-0.2-0.3-0.5-0.7-0.7s-0.9-0.2-1.2-0.2-0.8 0.1-1.2 0.3c-0.5 0.3-0.6 0.5-0.7 0.8s-0.2 0.9-0.2 1.3c-0.1 0.4-0.2 0.7-0.4 1.1s-0.7 0.7-0.7 0.7-0.1 0.8 0.7 0.9h0.5v2.2s0.1 0.6 0.7 0.6c0.2 0 0.4-0.1 0.5-0.1-0.7 6.1-1.8 12.2-1.8 12.2s6 11-8.8 9.4c-2.9-0.3-4.1-1.3-4.4-2.6-0.1 0.1-0.2 0.1-0.4 0.1-0.7 0-0.7-0.6-0.7-0.6-2 1.1-4.2 1.8-6.5 1.9v0.1-0.1h-0.2v0.1-0.1c-2.4-0.1-4.6-0.8-6.5-1.9 0 0-0.1 0.6-0.7 0.6-0.2 0-0.3 0-0.4-0.1-0.3 1.2-1.5 2.3-4.4 2.6-14.8 1.6-8.8-9.4-8.8-9.4s-1.2-6.2-1.8-12.2c0.1 0.1 0.3 0.1 0.5 0.1 0.7 0 0.7-0.6 0.7-0.6v-2.2h0.5c0.8-0.1 0.7-0.9 0.7-0.9s-0.5-0.3-0.7-0.7-0.3-0.7-0.4-1.1-0.1-1-0.2-1.3c-0.1-0.2-0.2-0.5-0.7-0.8-0.4-0.2-0.9-0.3-1.2-0.3s-0.8 0.1-1.2 0.2c-0.5 0.2-0.6 0.5-0.7 0.7-0.1 0.3-0.2 0.9-0.3 1.3s-0.2 0.7-0.4 1.1-0.7 0.7-0.7 0.7-0.1 0.8 0.7 1h0.5v2.2s0.1 0.6 0.7 0.6c0.1 0 0.3 0 0.4-0.1-0.4 3.2-0.4 5.6-1 5.8-1.9 0.5-5.7-5.8-6.3-10.8-1.6-14.3 13-33.2 12.8-40.1-0.2-5.2 0-24.6 18.8-24.8h0.2C69 4.3 69.2 23.7 69 29c-0.2 6.8 14.4 25.7 12.8 40m-19-44.6c0-4.4-3.6-8-8-8-1.8 0-3.4 0.6-4.8 1.6-1.3-1-3-1.6-4.8-1.6-4.4 0-8 3.6-8 8s3.6 8 8 8c1.8 0 3.5-0.6 4.8-1.6 1.3 1 3 1.6 4.8 1.6 4.4 0 8-3.6 8-8" fill="#000000" data-fill-palette-color="quaternary"></path></svg></g></svg></g></svg></g></svg></g><g></g></svg></g><defs></defs><mask id="39693218-4a20-4867-b47d-9dccc8632514"><g id="SvgjsG1145"><svg viewBox="0 0 357.3127942082522 247.2" height="247.2" width="357.3127942082522"><g><svg viewBox="0 0 395.52 273.6329221478012" height="247.2" width="357.3127942082522"><g transform="matrix(1,0,0,1,0,169.11612349573718)"><svg viewBox="0 0 395.52 104.51679865206403" height="104.51679865206403" width="395.52"><g id="SvgjsG1144"><svg viewBox="0 0 395.52 104.51679865206403" height="104.51679865206403" width="395.52" id="SvgjsSvg1143"><g><svg viewBox="0 0 395.52 104.51679865206403" height="104.51679865206403" width="395.52"><g transform="matrix(1,0,0,1,0,0)"><svg width="395.52" viewBox="4.52 -35.23 173.85999999999999 45.949999999999996" height="104.51679865206403" data-palette-color="url(#7383062e-c63d-46f8-8398-966ae7ad4397)"><path d="M4.52-35.11L15.5-35.11Q17.92-35.11 20.02-34.58 22.12-34.06 23.67-32.87 25.22-31.69 26.11-29.79 27-27.88 27-25.15L27-25.15Q27-22.09 25.98-20.17 24.95-18.24 23.21-17.11 21.46-15.99 19.15-15.58 16.85-15.16 14.28-15.16L14.28-15.16Q12.89-15.16 11.56-15.26 10.23-15.36 9.06-15.48L9.06-15.48 9.06 0 4.52 0 4.52-35.11ZM9.06-31.45L9.06-19.14Q10.23-18.99 11.51-18.91 12.79-18.82 14.09-18.82L14.09-18.82Q15.94-18.82 17.49-19.06 19.04-19.29 20.14-19.97 21.24-20.65 21.85-21.9 22.46-23.14 22.46-25.15L22.46-25.15Q22.46-26.98 21.95-28.19 21.44-29.39 20.52-30.13 19.6-30.86 18.32-31.15 17.04-31.45 15.5-31.45L15.5-31.45 9.06-31.45ZM51.63-4.71L52.85-1.42Q50.14-0.34 47.76 0.12 45.38 0.59 43.5 0.59L43.5 0.59Q40.62 0.59 38.47-0.33 36.33-1.25 34.9-2.91 33.47-4.57 32.75-6.87 32.03-9.18 32.03-11.96L32.03-11.96Q32.03-13.67 32.27-15.38 32.52-17.09 33.05-18.64 33.59-20.19 34.46-21.53 35.32-22.88 36.57-23.85 37.81-24.83 39.48-25.39 41.14-25.95 43.26-25.95L43.26-25.95Q48.7-25.95 51.46-22.55 54.22-19.14 54.22-12.79L54.22-12.79 54.22-11.45 36.35-11.45Q36.35-9.4 36.79-7.82 37.23-6.25 38.14-5.16 39.06-4.08 40.46-3.52 41.87-2.95 43.8-2.95L43.8-2.95Q44.87-2.95 45.93-3.11 46.99-3.27 48-3.53 49-3.78 49.91-4.1 50.83-4.42 51.63-4.71L51.63-4.71ZM36.47-14.82L50-14.82Q49.8-18.77 48.11-20.59 46.41-22.41 43.26-22.41L43.26-22.41Q40.11-22.41 38.46-20.59 36.81-18.77 36.47-14.82L36.47-14.82ZM59.96-24.95L59.96-24.95 64.01-25.85Q64.47-24.39 64.67-23.02L64.67-23.02Q64.77-22.36 64.91-20.41L64.91-20.41 65.42-20.41Q66.77-22.88 68.75-24.34L68.75-24.34Q70.92-25.95 73.33-25.95L73.33-25.95Q76.97-25.95 78.88-24.19L78.88-24.19Q80.51-22.71 81.15-19.63L81.15-19.63Q81.56-17.53 81.56-13.38L81.56-13.38 81.56 0 77.36 0 77.36-14.55Q77.36-18.19 76.66-19.75L76.66-19.75Q75.61-22.07 72.43-22.07L72.43-22.07Q70.19-22.07 68.04-19.92L68.04-19.92Q66.6-18.48 64.96-15.7L64.96-15.7 64.96 0 60.76 0 60.76-15.63Q60.76-18.92 60.59-21.31L60.59-21.31Q60.49-22.8 59.96-24.95ZM101.02-25.39L103.26-25.39Q104.31-25.39 105.11-25.42 105.9-25.44 106.63-25.52 107.37-25.61 108.11-25.78 108.85-25.95 109.86-26.27L109.86-26.27Q110.17-25.34 110.48-24.51 110.78-23.68 111.1-22.8L111.1-22.8Q110.32-22.51 109.66-22.34 109-22.17 108.35-22.06 107.71-21.95 107.06-21.91 106.41-21.88 105.68-21.85L105.68-21.85Q106.36-20.75 106.73-19.38 107.1-18.02 107.1-16.41L107.1-16.41Q107.1-14.06 106.39-12.32 105.68-10.57 104.36-9.35L104.36-9.35Q103.04-8.13 101.2-7.51 99.36-6.88 97.06-6.88L97.06-6.88Q95.89-6.88 94.84-7.02 93.79-7.15 92.84-7.5L92.84-7.5Q92.62-6.91 92.46-6.3 92.3-5.69 92.31-5.14 92.33-4.59 92.52-4.14 92.72-3.69 93.21-3.42L93.21-3.42Q93.45-3.27 93.72-3.19 93.99-3.1 94.37-3.04 94.74-2.98 95.28-2.94 95.82-2.91 96.57-2.91L96.57-2.91Q97.31-2.88 98.3-2.88 99.28-2.88 100.6-2.88L100.6-2.88Q104.41-2.88 106.36-1.28 108.32 0.32 108.32 3.69L108.32 3.69Q108.32 5.05 107.88 6.12 107.44 7.18 106.67 7.96 105.9 8.74 104.85 9.27 103.8 9.79 102.58 10.12 101.36 10.45 100.03 10.58 98.7 10.72 97.36 10.72L97.36 10.72Q96.01 10.72 94.66 10.57 93.3 10.42 92.01 10.21L92.01 10.21Q90.72 9.99 89.58 9.7 88.44 9.42 87.57 9.16L87.57 9.16Q87.91 8.33 88.33 7.5 88.76 6.67 89.25 5.93L89.25 5.93Q90.79 6.37 92.91 6.79 95.04 7.2 97.62 7.2L97.62 7.2Q98.8 7.2 99.93 7.06 101.07 6.91 101.98 6.51 102.9 6.1 103.46 5.43 104.02 4.76 104.02 3.69L104.02 3.69Q104.02 2.56 103.62 1.95 103.22 1.34 102.53 1.05 101.85 0.76 100.92 0.71 99.99 0.66 98.97 0.66L98.97 0.66 95.77 0.66Q94.33 0.66 93.06 0.44 91.79 0.22 90.84-0.31 89.89-0.83 89.34-1.68 88.79-2.54 88.79-3.78L88.79-3.78Q88.79-4.98 89.23-6.26 89.67-7.54 90.37-8.86L90.37-8.86Q88.76-10.03 87.9-11.96 87.03-13.89 87.03-16.41L87.03-16.41Q87.03-18.7 87.75-20.47 88.47-22.24 89.79-23.49L89.79-23.49Q91.11-24.73 92.94-25.34 94.77-25.95 97.06-25.95L97.06-25.95Q99.21-25.95 101.02-25.39L101.02-25.39ZM97.06-22.58L97.06-22.58Q95.52-22.58 94.43-22.12 93.33-21.66 92.63-20.84 91.94-20.02 91.61-18.88 91.28-17.75 91.28-16.41L91.28-16.41Q91.28-15.04 91.61-13.92 91.94-12.79 92.64-11.98 93.35-11.16 94.44-10.71 95.52-10.25 97.06-10.25L97.06-10.25Q98.6-10.25 99.7-10.71 100.8-11.16 101.49-11.98 102.19-12.79 102.52-13.93 102.85-15.06 102.85-16.41L102.85-16.41Q102.85-17.75 102.52-18.88 102.19-20.02 101.49-20.84 100.8-21.66 99.7-22.12 98.6-22.58 97.06-22.58ZM137.05-0.44L137.05-0.44 133 0.46Q132.53-1 132.34-2.37L132.34-2.37Q132.24-3 132.09-4.96L132.09-4.96 131.58-4.96Q130.24-2.49 128.26-1.03L128.26-1.03Q126.09 0.59 123.67 0.59L123.67 0.59Q120.03 0.59 118.13-1.17L118.13-1.17Q116.49-2.66 115.86-5.74L115.86-5.74Q115.44-7.84 115.44-11.99L115.44-11.99 115.44-25.39 119.64-25.39 119.64-10.82Q119.64-7.18 120.35-5.62L120.35-5.62Q121.4-3.3 124.57-3.3L124.57-3.3Q126.82-3.3 128.97-5.44L128.97-5.44Q130.41-6.88 132.05-9.67L132.05-9.67 132.05-25.39 136.24-25.39 136.24-9.72Q136.24-6.47 136.42-4.08L136.42-4.08Q136.51-2.59 137.05-0.44ZM146.79-35.23L146.79-35.23Q147.91-35.23 148.74-34.45L148.74-34.45Q149.55-33.59 149.55-32.45L149.55-32.45Q149.55-31.27 148.74-30.47L148.74-30.47Q147.91-29.64 146.79-29.64L146.79-29.64Q145.62-29.64 144.79-30.47L144.79-30.47Q143.96-31.25 143.96-32.45L143.96-32.45Q143.96-33.62 144.79-34.45L144.79-34.45Q145.62-35.23 146.79-35.23ZM144.64 0L144.64-25.39 148.84-25.39 148.84 0 144.64 0ZM156.77-24.95L156.77-24.95 160.82-25.85Q161.29-24.39 161.48-23.02L161.48-23.02Q161.58-22.36 161.73-20.41L161.73-20.41 162.24-20.41Q163.58-22.88 165.56-24.34L165.56-24.34Q167.73-25.95 170.15-25.95L170.15-25.95Q173.79-25.95 175.69-24.19L175.69-24.19Q177.33-22.71 177.96-19.63L177.96-19.63Q178.38-17.53 178.38-13.38L178.38-13.38 178.38 0 174.18 0 174.18-14.55Q174.18-18.19 173.47-19.75L173.47-19.75Q172.42-22.07 169.25-22.07L169.25-22.07Q167-22.07 164.85-19.92L164.85-19.92Q163.41-18.48 161.78-15.7L161.78-15.7 161.78 0 157.58 0 157.58-15.63Q157.58-18.92 157.41-21.31L157.41-21.31Q157.31-22.8 156.77-24.95Z" opacity="1" transform="matrix(1,0,0,1,0,0)" fill="white" class="wordmark-text-0" id="SvgjsPath1142"></path></svg></g></svg></g></svg></g></svg></g><g transform="matrix(1,0,0,1,125.53889213142375,0)"><svg viewBox="0 0 144.44221573715248 144.4422157371525" height="144.4422157371525" width="144.44221573715248"><g><svg></svg></g><g id="SvgjsG1141"><svg viewBox="0 0 144.44221573715248 144.4422157371525" height="144.4422157371525" width="144.44221573715248"><g><path transform="scale(1.44442,1.44442)" d="M30 100c-16.569 0-30-13.431-30-30v-40c0-16.569 13.431-30 30-30h40c16.569 0 30 13.431 30 30v40c0 16.569-13.431 30-30 30z" fill="black" fill-rule="nonzero" stroke="none" stroke-width="1" stroke-linecap="butt" stroke-linejoin="miter" stroke-miterlimit="10" stroke-dasharray="" stroke-dashoffset="0" font-family="none" font-weight="none" font-size="none" text-anchor="none" style="mix-blend-mode: normal"></path></g><g transform="matrix(1,0,0,1,42.16508875577962,28.8884431474305)"><svg viewBox="0 0 60.11203822559323 86.66532944229151" height="86.66532944229151" width="60.11203822559323"><g><svg xmlns="http://www.w3.org/2000/svg" xml:space="preserve" viewBox="18.2774555030272 4.099999999999998 63.64508899394559 91.7590347601264" x="0" y="0" height="86.66532944229151" width="60.11203822559323" class="icon-dxe-0" data-fill-palette-color="quaternary" id="SvgjsSvg1140"><path d="M55.9 24.4c0 0.6-0.4 1-1 1s-1-0.4-1-1 0.4-1 1-1c0.5 0 1 0.4 1 1m-10.7-1c-0.6 0-1 0.4-1 1s0.4 1 1 1 1-0.4 1-1-0.5-1-1-1M81.8 69c-0.6 5-4.3 11.2-6.1 10.8-0.6-0.1-0.7-2.6-1-5.8 0.1 0 0.2 0.1 0.4 0.1 0.7 0 0.7-0.6 0.7-0.6v-2.2h0.5c0.8-0.2 0.7-1 0.7-1s-0.5-0.3-0.7-0.7-0.3-0.7-0.4-1.1-0.2-1-0.3-1.3c-0.1-0.2-0.3-0.5-0.7-0.7s-0.9-0.2-1.2-0.2-0.8 0.1-1.2 0.3c-0.5 0.3-0.6 0.5-0.7 0.8s-0.2 0.9-0.2 1.3c-0.1 0.4-0.2 0.7-0.4 1.1s-0.7 0.7-0.7 0.7-0.1 0.8 0.7 0.9h0.5v2.2s0.1 0.6 0.7 0.6c0.2 0 0.4-0.1 0.5-0.1-0.7 6.1-1.8 12.2-1.8 12.2s6 11-8.8 9.4c-2.9-0.3-4.1-1.3-4.4-2.6-0.1 0.1-0.2 0.1-0.4 0.1-0.7 0-0.7-0.6-0.7-0.6-2 1.1-4.2 1.8-6.5 1.9v0.1-0.1h-0.2v0.1-0.1c-2.4-0.1-4.6-0.8-6.5-1.9 0 0-0.1 0.6-0.7 0.6-0.2 0-0.3 0-0.4-0.1-0.3 1.2-1.5 2.3-4.4 2.6-14.8 1.6-8.8-9.4-8.8-9.4s-1.2-6.2-1.8-12.2c0.1 0.1 0.3 0.1 0.5 0.1 0.7 0 0.7-0.6 0.7-0.6v-2.2h0.5c0.8-0.1 0.7-0.9 0.7-0.9s-0.5-0.3-0.7-0.7-0.3-0.7-0.4-1.1-0.1-1-0.2-1.3c-0.1-0.2-0.2-0.5-0.7-0.8-0.4-0.2-0.9-0.3-1.2-0.3s-0.8 0.1-1.2 0.2c-0.5 0.2-0.6 0.5-0.7 0.7-0.1 0.3-0.2 0.9-0.3 1.3s-0.2 0.7-0.4 1.1-0.7 0.7-0.7 0.7-0.1 0.8 0.7 1h0.5v2.2s0.1 0.6 0.7 0.6c0.1 0 0.3 0 0.4-0.1-0.4 3.2-0.4 5.6-1 5.8-1.9 0.5-5.7-5.8-6.3-10.8-1.6-14.3 13-33.2 12.8-40.1-0.2-5.2 0-24.6 18.8-24.8h0.2C69 4.3 69.2 23.7 69 29c-0.2 6.8 14.4 25.7 12.8 40m-19-44.6c0-4.4-3.6-8-8-8-1.8 0-3.4 0.6-4.8 1.6-1.3-1-3-1.6-4.8-1.6-4.4 0-8 3.6-8 8s3.6 8 8 8c1.8 0 3.5-0.6 4.8-1.6 1.3 1 3 1.6 4.8 1.6 4.4 0 8-3.6 8-8" fill="black"></path></svg></g></svg></g></svg></g></svg></g><g></g></svg></g><defs><mask></mask></defs></svg><rect width="357.3127942082522" height="247.2" fill="black" stroke="none" visibility="hidden"></rect></g></mask><linearGradient x1="0" x2="1" y1="0.578" y2="0.595" id="7383062e-c63d-46f8-8398-966ae7ad4397"><stop stop-color="#dede50" offset="0"></stop><stop stop-color="#559c49" offset="1"></stop></linearGradient><rect width="357.3127942082522" height="247.2" fill="url(#7383062e-c63d-46f8-8398-966ae7ad4397)" mask="url(#39693218-4a20-4867-b47d-9dccc8632514)" data-fill-palette-color="primary"></rect><mask id="f6fcf375-69e2-47ad-8ff5-5f8acaa61b54"><g id="SvgjsG1168"><svg viewBox="0 0 357.3127942082522 247.2" height="247.2" width="357.3127942082522"><g><svg viewBox="0 0 395.52 273.6329221478012" height="247.2" width="357.3127942082522"><g transform="matrix(1,0,0,1,0,169.11612349573718)"><svg viewBox="0 0 395.52 104.51679865206403" height="104.51679865206403" width="395.52"><g id="SvgjsG1167"><svg viewBox="0 0 395.52 104.51679865206403" height="104.51679865206403" width="395.52" id="SvgjsSvg1166"><g><svg viewBox="0 0 395.52 104.51679865206403" height="104.51679865206403" width="395.52"><g transform="matrix(1,0,0,1,0,0)"><svg width="395.52" viewBox="4.52 -35.23 173.85999999999999 45.949999999999996" height="104.51679865206403" data-palette-color="url(#7383062e-c63d-46f8-8398-966ae7ad4397)"></svg></g></svg></g></svg></g></svg></g><g transform="matrix(1,0,0,1,125.53889213142375,0)"><svg viewBox="0 0 144.44221573715248 144.4422157371525" height="144.4422157371525" width="144.44221573715248"><g><svg></svg></g><g id="SvgjsG1165"><svg viewBox="0 0 144.44221573715248 144.4422157371525" height="144.4422157371525" width="144.44221573715248"><g><path transform="scale(1.44442,1.44442)" d="M30 100c-16.569 0-30-13.431-30-30v-40c0-16.569 13.431-30 30-30h40c16.569 0 30 13.431 30 30v40c0 16.569-13.431 30-30 30z" fill="white" fill-rule="nonzero" stroke="none" stroke-width="1" stroke-linecap="butt" stroke-linejoin="miter" stroke-miterlimit="10" stroke-dasharray="" stroke-dashoffset="0" font-family="none" font-weight="none" font-size="none" text-anchor="none" style="mix-blend-mode: normal"></path></g><g transform="matrix(1,0,0,1,42.16508875577962,28.8884431474305)"><svg viewBox="0 0 60.11203822559323 86.66532944229151" height="86.66532944229151" width="60.11203822559323"><g><svg xmlns="http://www.w3.org/2000/svg" xml:space="preserve" viewBox="18.2774555030272 4.099999999999998 63.64508899394559 91.7590347601264" x="0" y="0" height="86.66532944229151" width="60.11203822559323" class="icon-dxe-0" data-fill-palette-color="quaternary" id="SvgjsSvg1164"><path d="M55.9 24.4c0 0.6-0.4 1-1 1s-1-0.4-1-1 0.4-1 1-1c0.5 0 1 0.4 1 1m-10.7-1c-0.6 0-1 0.4-1 1s0.4 1 1 1 1-0.4 1-1-0.5-1-1-1M81.8 69c-0.6 5-4.3 11.2-6.1 10.8-0.6-0.1-0.7-2.6-1-5.8 0.1 0 0.2 0.1 0.4 0.1 0.7 0 0.7-0.6 0.7-0.6v-2.2h0.5c0.8-0.2 0.7-1 0.7-1s-0.5-0.3-0.7-0.7-0.3-0.7-0.4-1.1-0.2-1-0.3-1.3c-0.1-0.2-0.3-0.5-0.7-0.7s-0.9-0.2-1.2-0.2-0.8 0.1-1.2 0.3c-0.5 0.3-0.6 0.5-0.7 0.8s-0.2 0.9-0.2 1.3c-0.1 0.4-0.2 0.7-0.4 1.1s-0.7 0.7-0.7 0.7-0.1 0.8 0.7 0.9h0.5v2.2s0.1 0.6 0.7 0.6c0.2 0 0.4-0.1 0.5-0.1-0.7 6.1-1.8 12.2-1.8 12.2s6 11-8.8 9.4c-2.9-0.3-4.1-1.3-4.4-2.6-0.1 0.1-0.2 0.1-0.4 0.1-0.7 0-0.7-0.6-0.7-0.6-2 1.1-4.2 1.8-6.5 1.9v0.1-0.1h-0.2v0.1-0.1c-2.4-0.1-4.6-0.8-6.5-1.9 0 0-0.1 0.6-0.7 0.6-0.2 0-0.3 0-0.4-0.1-0.3 1.2-1.5 2.3-4.4 2.6-14.8 1.6-8.8-9.4-8.8-9.4s-1.2-6.2-1.8-12.2c0.1 0.1 0.3 0.1 0.5 0.1 0.7 0 0.7-0.6 0.7-0.6v-2.2h0.5c0.8-0.1 0.7-0.9 0.7-0.9s-0.5-0.3-0.7-0.7-0.3-0.7-0.4-1.1-0.1-1-0.2-1.3c-0.1-0.2-0.2-0.5-0.7-0.8-0.4-0.2-0.9-0.3-1.2-0.3s-0.8 0.1-1.2 0.2c-0.5 0.2-0.6 0.5-0.7 0.7-0.1 0.3-0.2 0.9-0.3 1.3s-0.2 0.7-0.4 1.1-0.7 0.7-0.7 0.7-0.1 0.8 0.7 1h0.5v2.2s0.1 0.6 0.7 0.6c0.1 0 0.3 0 0.4-0.1-0.4 3.2-0.4 5.6-1 5.8-1.9 0.5-5.7-5.8-6.3-10.8-1.6-14.3 13-33.2 12.8-40.1-0.2-5.2 0-24.6 18.8-24.8h0.2C69 4.3 69.2 23.7 69 29c-0.2 6.8 14.4 25.7 12.8 40m-19-44.6c0-4.4-3.6-8-8-8-1.8 0-3.4 0.6-4.8 1.6-1.3-1-3-1.6-4.8-1.6-4.4 0-8 3.6-8 8s3.6 8 8 8c1.8 0 3.5-0.6 4.8-1.6 1.3 1 3 1.6 4.8 1.6 4.4 0 8-3.6 8-8" fill="black"></path></svg></g></svg></g></svg></g></svg></g><g></g></svg></g><defs><mask></mask></defs><mask><g id="SvgjsG1163"><svg viewBox="0 0 357.3127942082522 247.2" height="247.2" width="357.3127942082522"><g><svg viewBox="0 0 395.52 273.6329221478012" height="247.2" width="357.3127942082522"><g transform="matrix(1,0,0,1,0,169.11612349573718)"><svg viewBox="0 0 395.52 104.51679865206403" height="104.51679865206403" width="395.52"><g id="SvgjsG1162"><svg viewBox="0 0 395.52 104.51679865206403" height="104.51679865206403" width="395.52" id="SvgjsSvg1161"><g><svg viewBox="0 0 395.52 104.51679865206403" height="104.51679865206403" width="395.52"><g transform="matrix(1,0,0,1,0,0)"><svg width="395.52" viewBox="4.52 -35.23 173.85999999999999 45.949999999999996" height="104.51679865206403" data-palette-color="url(#7383062e-c63d-46f8-8398-966ae7ad4397)"><path d="M4.52-35.11L15.5-35.11Q17.92-35.11 20.02-34.58 22.12-34.06 23.67-32.87 25.22-31.69 26.11-29.79 27-27.88 27-25.15L27-25.15Q27-22.09 25.98-20.17 24.95-18.24 23.21-17.11 21.46-15.99 19.15-15.58 16.85-15.16 14.28-15.16L14.28-15.16Q12.89-15.16 11.56-15.26 10.23-15.36 9.06-15.48L9.06-15.48 9.06 0 4.52 0 4.52-35.11ZM9.06-31.45L9.06-19.14Q10.23-18.99 11.51-18.91 12.79-18.82 14.09-18.82L14.09-18.82Q15.94-18.82 17.49-19.06 19.04-19.29 20.14-19.97 21.24-20.65 21.85-21.9 22.46-23.14 22.46-25.15L22.46-25.15Q22.46-26.98 21.95-28.19 21.44-29.39 20.52-30.13 19.6-30.86 18.32-31.15 17.04-31.45 15.5-31.45L15.5-31.45 9.06-31.45ZM51.63-4.71L52.85-1.42Q50.14-0.34 47.76 0.12 45.38 0.59 43.5 0.59L43.5 0.59Q40.62 0.59 38.47-0.33 36.33-1.25 34.9-2.91 33.47-4.57 32.75-6.87 32.03-9.18 32.03-11.96L32.03-11.96Q32.03-13.67 32.27-15.38 32.52-17.09 33.05-18.64 33.59-20.19 34.46-21.53 35.32-22.88 36.57-23.85 37.81-24.83 39.48-25.39 41.14-25.95 43.26-25.95L43.26-25.95Q48.7-25.95 51.46-22.55 54.22-19.14 54.22-12.79L54.22-12.79 54.22-11.45 36.35-11.45Q36.35-9.4 36.79-7.82 37.23-6.25 38.14-5.16 39.06-4.08 40.46-3.52 41.87-2.95 43.8-2.95L43.8-2.95Q44.87-2.95 45.93-3.11 46.99-3.27 48-3.53 49-3.78 49.91-4.1 50.83-4.42 51.63-4.71L51.63-4.71ZM36.47-14.82L50-14.82Q49.8-18.77 48.11-20.59 46.41-22.41 43.26-22.41L43.26-22.41Q40.11-22.41 38.46-20.59 36.81-18.77 36.47-14.82L36.47-14.82ZM59.96-24.95L59.96-24.95 64.01-25.85Q64.47-24.39 64.67-23.02L64.67-23.02Q64.77-22.36 64.91-20.41L64.91-20.41 65.42-20.41Q66.77-22.88 68.75-24.34L68.75-24.34Q70.92-25.95 73.33-25.95L73.33-25.95Q76.97-25.95 78.88-24.19L78.88-24.19Q80.51-22.71 81.15-19.63L81.15-19.63Q81.56-17.53 81.56-13.38L81.56-13.38 81.56 0 77.36 0 77.36-14.55Q77.36-18.19 76.66-19.75L76.66-19.75Q75.61-22.07 72.43-22.07L72.43-22.07Q70.19-22.07 68.04-19.92L68.04-19.92Q66.6-18.48 64.96-15.7L64.96-15.7 64.96 0 60.76 0 60.76-15.63Q60.76-18.92 60.59-21.31L60.59-21.31Q60.49-22.8 59.96-24.95ZM101.02-25.39L103.26-25.39Q104.31-25.39 105.11-25.42 105.9-25.44 106.63-25.52 107.37-25.61 108.11-25.78 108.85-25.95 109.86-26.27L109.86-26.27Q110.17-25.34 110.48-24.51 110.78-23.68 111.1-22.8L111.1-22.8Q110.32-22.51 109.66-22.34 109-22.17 108.35-22.06 107.71-21.95 107.06-21.91 106.41-21.88 105.68-21.85L105.68-21.85Q106.36-20.75 106.73-19.38 107.1-18.02 107.1-16.41L107.1-16.41Q107.1-14.06 106.39-12.32 105.68-10.57 104.36-9.35L104.36-9.35Q103.04-8.13 101.2-7.51 99.36-6.88 97.06-6.88L97.06-6.88Q95.89-6.88 94.84-7.02 93.79-7.15 92.84-7.5L92.84-7.5Q92.62-6.91 92.46-6.3 92.3-5.69 92.31-5.14 92.33-4.59 92.52-4.14 92.72-3.69 93.21-3.42L93.21-3.42Q93.45-3.27 93.72-3.19 93.99-3.1 94.37-3.04 94.74-2.98 95.28-2.94 95.82-2.91 96.57-2.91L96.57-2.91Q97.31-2.88 98.3-2.88 99.28-2.88 100.6-2.88L100.6-2.88Q104.41-2.88 106.36-1.28 108.32 0.32 108.32 3.69L108.32 3.69Q108.32 5.05 107.88 6.12 107.44 7.18 106.67 7.96 105.9 8.74 104.85 9.27 103.8 9.79 102.58 10.12 101.36 10.45 100.03 10.58 98.7 10.72 97.36 10.72L97.36 10.72Q96.01 10.72 94.66 10.57 93.3 10.42 92.01 10.21L92.01 10.21Q90.72 9.99 89.58 9.7 88.44 9.42 87.57 9.16L87.57 9.16Q87.91 8.33 88.33 7.5 88.76 6.67 89.25 5.93L89.25 5.93Q90.79 6.37 92.91 6.79 95.04 7.2 97.62 7.2L97.62 7.2Q98.8 7.2 99.93 7.06 101.07 6.91 101.98 6.51 102.9 6.1 103.46 5.43 104.02 4.76 104.02 3.69L104.02 3.69Q104.02 2.56 103.62 1.95 103.22 1.34 102.53 1.05 101.85 0.76 100.92 0.71 99.99 0.66 98.97 0.66L98.97 0.66 95.77 0.66Q94.33 0.66 93.06 0.44 91.79 0.22 90.84-0.31 89.89-0.83 89.34-1.68 88.79-2.54 88.79-3.78L88.79-3.78Q88.79-4.98 89.23-6.26 89.67-7.54 90.37-8.86L90.37-8.86Q88.76-10.03 87.9-11.96 87.03-13.89 87.03-16.41L87.03-16.41Q87.03-18.7 87.75-20.47 88.47-22.24 89.79-23.49L89.79-23.49Q91.11-24.73 92.94-25.34 94.77-25.95 97.06-25.95L97.06-25.95Q99.21-25.95 101.02-25.39L101.02-25.39ZM97.06-22.58L97.06-22.58Q95.52-22.58 94.43-22.12 93.33-21.66 92.63-20.84 91.94-20.02 91.61-18.88 91.28-17.75 91.28-16.41L91.28-16.41Q91.28-15.04 91.61-13.92 91.94-12.79 92.64-11.98 93.35-11.16 94.44-10.71 95.52-10.25 97.06-10.25L97.06-10.25Q98.6-10.25 99.7-10.71 100.8-11.16 101.49-11.98 102.19-12.79 102.52-13.93 102.85-15.06 102.85-16.41L102.85-16.41Q102.85-17.75 102.52-18.88 102.19-20.02 101.49-20.84 100.8-21.66 99.7-22.12 98.6-22.58 97.06-22.58ZM137.05-0.44L137.05-0.44 133 0.46Q132.53-1 132.34-2.37L132.34-2.37Q132.24-3 132.09-4.96L132.09-4.96 131.58-4.96Q130.24-2.49 128.26-1.03L128.26-1.03Q126.09 0.59 123.67 0.59L123.67 0.59Q120.03 0.59 118.13-1.17L118.13-1.17Q116.49-2.66 115.86-5.74L115.86-5.74Q115.44-7.84 115.44-11.99L115.44-11.99 115.44-25.39 119.64-25.39 119.64-10.82Q119.64-7.18 120.35-5.62L120.35-5.62Q121.4-3.3 124.57-3.3L124.57-3.3Q126.82-3.3 128.97-5.44L128.97-5.44Q130.41-6.88 132.05-9.67L132.05-9.67 132.05-25.39 136.24-25.39 136.24-9.72Q136.24-6.47 136.42-4.08L136.42-4.08Q136.51-2.59 137.05-0.44ZM146.79-35.23L146.79-35.23Q147.91-35.23 148.74-34.45L148.74-34.45Q149.55-33.59 149.55-32.45L149.55-32.45Q149.55-31.27 148.74-30.47L148.74-30.47Q147.91-29.64 146.79-29.64L146.79-29.64Q145.62-29.64 144.79-30.47L144.79-30.47Q143.96-31.25 143.96-32.45L143.96-32.45Q143.96-33.62 144.79-34.45L144.79-34.45Q145.62-35.23 146.79-35.23ZM144.64 0L144.64-25.39 148.84-25.39 148.84 0 144.64 0ZM156.77-24.95L156.77-24.95 160.82-25.85Q161.29-24.39 161.48-23.02L161.48-23.02Q161.58-22.36 161.73-20.41L161.73-20.41 162.24-20.41Q163.58-22.88 165.56-24.34L165.56-24.34Q167.73-25.95 170.15-25.95L170.15-25.95Q173.79-25.95 175.69-24.19L175.69-24.19Q177.33-22.71 177.96-19.63L177.96-19.63Q178.38-17.53 178.38-13.38L178.38-13.38 178.38 0 174.18 0 174.18-14.55Q174.18-18.19 173.47-19.75L173.47-19.75Q172.42-22.07 169.25-22.07L169.25-22.07Q167-22.07 164.85-19.92L164.85-19.92Q163.41-18.48 161.78-15.7L161.78-15.7 161.78 0 157.58 0 157.58-15.63Q157.58-18.92 157.41-21.31L157.41-21.31Q157.31-22.8 156.77-24.95Z" opacity="1" transform="matrix(1,0,0,1,0,0)" fill="black" class="wordmark-text-0" id="SvgjsPath1160"></path></svg></g></svg></g></svg></g></svg></g><g transform="matrix(1,0,0,1,125.53889213142375,0)"><svg viewBox="0 0 144.44221573715248 144.4422157371525" height="144.4422157371525" width="144.44221573715248"><g><svg></svg></g><g id="SvgjsG1159"><svg viewBox="0 0 144.44221573715248 144.4422157371525" height="144.4422157371525" width="144.44221573715248"><g><path transform="scale(1.44442,1.44442)" d="M30 100c-16.569 0-30-13.431-30-30v-40c0-16.569 13.431-30 30-30h40c16.569 0 30 13.431 30 30v40c0 16.569-13.431 30-30 30z" fill="black" fill-rule="nonzero" stroke="none" stroke-width="1" stroke-linecap="butt" stroke-linejoin="miter" stroke-miterlimit="10" stroke-dasharray="" stroke-dashoffset="0" font-family="none" font-weight="none" font-size="none" text-anchor="none" style="mix-blend-mode: normal"></path></g><g transform="matrix(1,0,0,1,42.16508875577962,28.8884431474305)"><svg viewBox="0 0 60.11203822559323 86.66532944229151" height="86.66532944229151" width="60.11203822559323"><g><svg xmlns="http://www.w3.org/2000/svg" xml:space="preserve" viewBox="18.2774555030272 4.099999999999998 63.64508899394559 91.7590347601264" x="0" y="0" height="86.66532944229151" width="60.11203822559323" class="icon-dxe-0" data-fill-palette-color="quaternary" id="SvgjsSvg1158"><path d="M55.9 24.4c0 0.6-0.4 1-1 1s-1-0.4-1-1 0.4-1 1-1c0.5 0 1 0.4 1 1m-10.7-1c-0.6 0-1 0.4-1 1s0.4 1 1 1 1-0.4 1-1-0.5-1-1-1M81.8 69c-0.6 5-4.3 11.2-6.1 10.8-0.6-0.1-0.7-2.6-1-5.8 0.1 0 0.2 0.1 0.4 0.1 0.7 0 0.7-0.6 0.7-0.6v-2.2h0.5c0.8-0.2 0.7-1 0.7-1s-0.5-0.3-0.7-0.7-0.3-0.7-0.4-1.1-0.2-1-0.3-1.3c-0.1-0.2-0.3-0.5-0.7-0.7s-0.9-0.2-1.2-0.2-0.8 0.1-1.2 0.3c-0.5 0.3-0.6 0.5-0.7 0.8s-0.2 0.9-0.2 1.3c-0.1 0.4-0.2 0.7-0.4 1.1s-0.7 0.7-0.7 0.7-0.1 0.8 0.7 0.9h0.5v2.2s0.1 0.6 0.7 0.6c0.2 0 0.4-0.1 0.5-0.1-0.7 6.1-1.8 12.2-1.8 12.2s6 11-8.8 9.4c-2.9-0.3-4.1-1.3-4.4-2.6-0.1 0.1-0.2 0.1-0.4 0.1-0.7 0-0.7-0.6-0.7-0.6-2 1.1-4.2 1.8-6.5 1.9v0.1-0.1h-0.2v0.1-0.1c-2.4-0.1-4.6-0.8-6.5-1.9 0 0-0.1 0.6-0.7 0.6-0.2 0-0.3 0-0.4-0.1-0.3 1.2-1.5 2.3-4.4 2.6-14.8 1.6-8.8-9.4-8.8-9.4s-1.2-6.2-1.8-12.2c0.1 0.1 0.3 0.1 0.5 0.1 0.7 0 0.7-0.6 0.7-0.6v-2.2h0.5c0.8-0.1 0.7-0.9 0.7-0.9s-0.5-0.3-0.7-0.7-0.3-0.7-0.4-1.1-0.1-1-0.2-1.3c-0.1-0.2-0.2-0.5-0.7-0.8-0.4-0.2-0.9-0.3-1.2-0.3s-0.8 0.1-1.2 0.2c-0.5 0.2-0.6 0.5-0.7 0.7-0.1 0.3-0.2 0.9-0.3 1.3s-0.2 0.7-0.4 1.1-0.7 0.7-0.7 0.7-0.1 0.8 0.7 1h0.5v2.2s0.1 0.6 0.7 0.6c0.1 0 0.3 0 0.4-0.1-0.4 3.2-0.4 5.6-1 5.8-1.9 0.5-5.7-5.8-6.3-10.8-1.6-14.3 13-33.2 12.8-40.1-0.2-5.2 0-24.6 18.8-24.8h0.2C69 4.3 69.2 23.7 69 29c-0.2 6.8 14.4 25.7 12.8 40m-19-44.6c0-4.4-3.6-8-8-8-1.8 0-3.4 0.6-4.8 1.6-1.3-1-3-1.6-4.8-1.6-4.4 0-8 3.6-8 8s3.6 8 8 8c1.8 0 3.5-0.6 4.8-1.6 1.3 1 3 1.6 4.8 1.6 4.4 0 8-3.6 8-8" fill="black"></path></svg></g></svg></g></svg></g></svg></g><g></g></svg></g><defs><mask></mask></defs></svg><rect width="357.3127942082522" height="247.2" fill="black" stroke="none" visibility="hidden"></rect></g></mask></svg><rect width="357.3127942082522" height="247.2" fill="black" stroke="none" visibility="hidden"></rect></g></mask><linearGradient x1="0" x2="1" y1="0.578" y2="0.595" id="9d938dd6-a608-4890-9ba4-d1aa5375dac8"><stop stop-color="#dede50" offset="0"></stop><stop stop-color="#559c49" offset="1"></stop></linearGradient><rect width="357.3127942082522" height="247.2" fill="url(#9d938dd6-a608-4890-9ba4-d1aa5375dac8)" mask="url(#f6fcf375-69e2-47ad-8ff5-5f8acaa61b54)" data-fill-palette-color="accent"></rect></svg><rect width="357.3127942082522" height="247.2" fill="none" stroke="none" visibility="hidden"></rect></g></svg></g></svg>